{
    "asset" : {
        "generator" : "Khronos glTF Blender I/O v1.8.19",
        "version" : "2.0"
    },
    "scene" : 0,
    "scenes" : [
        {
            "name" : "Scene",
            "nodes" : [
                0
            ]
        }
    ],
    "nodes" : [
        {
            "mesh" : 0,
            "name" : "Tail_low_UV.001_0"
        }
    ],
    "materials" : [
        {
            "doubleSided" : true,
            "emissiveFactor" : [
                1,
                1,
                1
            ],
            "emissiveTexture" : {
                "index" : 0
            },
            "name" : "UV.001",
            "occlusionTexture" : {
                "index" : 1
            },
            "pbrMetallicRoughness" : {
                "baseColorTexture" : {
                    "index" : 2
                },
                "metallicRoughnessTexture" : {
                    "index" : 1
                }
            }
        }
    ],
    "meshes" : [
        {
            "name" : "Tail_low_UV.001_0",
            "primitives" : [
                {
                    "attributes" : {
                        "POSITION" : 0,
                        "NORMAL" : 1,
                        "TEXCOORD_0" : 2
                    },
                    "indices" : 3,
                    "material" : 0
                }
            ]
        }
    ],
    "textures" : [
        {
            "sampler" : 0,
            "source" : 0
        },
        {
            "sampler" : 0,
            "source" : 1
        },
        {
            "sampler" : 0,
            "source" : 2
        }
    ],
    "images" : [
        {
            "mimeType" : "image/png",
            "name" : "UV.001_emissive",
            "uri" : "textures/UV_001_emissive.png"
        },
        {
            "mimeType" : "image/png",
            "name" : "UV.001_metallicRoughness",
            "uri" : "textures/UV_001_metallicRoughness.png"
        },
        {
            "mimeType" : "image/png",
            "name" : "UV.001_baseColor",
            "uri" : "textures/UV_001_baseColor.png"
        }
    ],
    "accessors" : [
        {
            "bufferView" : 0,
            "componentType" : 5126,
            "count" : 20506,
            "max" : [
                4.895408630371094,
                2.8597562313079834,
                7.861546516418457
            ],
            "min" : [
                -8.040323257446289,
                -2.423166036605835,
                -7.066187381744385
            ],
            "type" : "VEC3"
        },
        {
            "bufferView" : 1,
            "componentType" : 5126,
            "count" : 20506,
            "type" : "VEC3"
        },
        {
            "bufferView" : 2,
            "componentType" : 5126,
            "count" : 20506,
            "type" : "VEC2"
        },
        {
            "bufferView" : 3,
            "componentType" : 5123,
            "count" : 46011,
            "type" : "SCALAR"
        }
    ],
    "bufferViews" : [
        {
            "buffer" : 0,
            "byteLength" : 246072,
            "byteOffset" : 0
        },
        {
            "buffer" : 0,
            "byteLength" : 246072,
            "byteOffset" : 246072
        },
        {
            "buffer" : 0,
            "byteLength" : 164048,
            "byteOffset" : 492144
        },
        {
            "buffer" : 0,
            "byteLength" : 92022,
            "byteOffset" : 656192
        }
    ],
    "samplers" : [
        {
            "magFilter" : 9729,
            "minFilter" : 9987
        }
    ],
    "buffers" : [
        {
            "byteLength" : 748216,
            "uri" : "scene.bin"
        }
    ]
}
