{
    "asset" : {
        "generator" : "Khronos glTF Blender I/O v1.8.19",
        "version" : "2.0"
    },
    "scene" : 0,
    "scenes" : [
        {
            "name" : "Scene",
            "nodes" : [
                0
            ]
        }
    ],
    "nodes" : [
        {
            "mesh" : 0,
            "name" : "Astronaut_mesh_Astronaut_mat_0"
        }
    ],
    "materials" : [
        {
            "emissiveFactor" : [
                0.5659298896789551,
                0.5659298896789551,
                0.5659298896789551
            ],
            "emissiveTexture" : {
                "index" : 0,
                "texCoord" : 1
            },
            "name" : "Astronaut_mat",
            "pbrMetallicRoughness" : {
                "baseColorTexture" : {
                    "index" : 1
                },
                "metallicFactor" : 0,
                "metallicRoughnessTexture" : {
                    "index" : 2,
                    "texCoord" : 1
                },
                "roughnessFactor" : 0.8980563879013062
            }
        },
        {
            "doubleSided" : true,
            "name" : "Mat.1",
            "pbrMetallicRoughness" : {
                "baseColorFactor" : [
                    0.6307571530342102,
                    0.6307571530342102,
                    0.6307571530342102,
                    1
                ],
                "metallicFactor" : 0,
                "roughnessFactor" : 0.6000000238418579
            }
        },
        {
            "doubleSided" : true,
            "name" : "Mat.4",
            "pbrMetallicRoughness" : {
                "baseColorFactor" : [
                    0.3762621283531189,
                    0.42869049310684204,
                    0.43415364623069763,
                    1
                ],
                "metallicFactor" : 0,
                "roughnessFactor" : 0.8065930008888245
            }
        },
        {
            "doubleSided" : true,
            "name" : "Mat.3",
            "pbrMetallicRoughness" : {
                "baseColorFactor" : [
                    0.3762621283531189,
                    0.42869049310684204,
                    0.43415364623069763,
                    1
                ],
                "metallicFactor" : 0,
                "roughnessFactor" : 0
            }
        },
        {
            "doubleSided" : true,
            "name" : "Mat.2",
            "pbrMetallicRoughness" : {
                "baseColorFactor" : [
                    0.3762621283531189,
                    0.42869049310684204,
                    0.43415364623069763,
                    1
                ],
                "metallicFactor" : 0,
                "roughnessFactor" : 0.6000000238418579
            }
        }
    ],
    "meshes" : [
        {
            "name" : "Astronaut_mesh_Astronaut_mat_0",
            "primitives" : [
                {
                    "attributes" : {
                        "POSITION" : 0,
                        "NORMAL" : 1,
                        "TEXCOORD_0" : 2,
                        "TEXCOORD_1" : 3
                    },
                    "indices" : 4,
                    "material" : 0
                },
                {
                    "attributes" : {
                        "POSITION" : 5,
                        "NORMAL" : 6,
                        "TEXCOORD_0" : 7,
                        "TEXCOORD_1" : 8
                    },
                    "indices" : 9,
                    "material" : 1
                },
                {
                    "attributes" : {
                        "POSITION" : 10,
                        "NORMAL" : 11,
                        "TEXCOORD_0" : 12,
                        "TEXCOORD_1" : 13
                    },
                    "indices" : 14,
                    "material" : 2
                },
                {
                    "attributes" : {
                        "POSITION" : 15,
                        "NORMAL" : 16,
                        "TEXCOORD_0" : 17,
                        "TEXCOORD_1" : 18
                    },
                    "indices" : 19,
                    "material" : 3
                },
                {
                    "attributes" : {
                        "POSITION" : 20,
                        "NORMAL" : 21,
                        "TEXCOORD_0" : 22,
                        "TEXCOORD_1" : 23
                    },
                    "indices" : 24,
                    "material" : 4
                }
            ]
        }
    ],
    "textures" : [
        {
            "sampler" : 0,
            "source" : 0
        },
        {
            "sampler" : 0,
            "source" : 0
        },
        {
            "sampler" : 0,
            "source" : 1
        }
    ],
    "images" : [
        {
            "mimeType" : "image/jpeg",
            "name" : "Astronaut_mat_baseColor",
            "uri" : "textures/Astronaut_mat_baseColor.jpg"
        },
        {
            "mimeType" : "image/png",
            "name" : "Astronaut_mat_metallicRoughness",
            "uri" : "textures/Astronaut_mat_metallicRoughness.png"
        }
    ],
    "accessors" : [
        {
            "bufferView" : 0,
            "componentType" : 5126,
            "count" : 156470,
            "max" : [
                1.901632308959961,
                4.221061706542969,
                0.5297540426254272
            ],
            "min" : [
                -1.6281538009643555,
                -0.02686176262795925,
                -0.9269632697105408
            ],
            "type" : "VEC3"
        },
        {
            "bufferView" : 1,
            "componentType" : 5126,
            "count" : 156470,
            "type" : "VEC3"
        },
        {
            "bufferView" : 2,
            "componentType" : 5126,
            "count" : 156470,
            "type" : "VEC2"
        },
        {
            "bufferView" : 3,
            "componentType" : 5126,
            "count" : 156470,
            "type" : "VEC2"
        },
        {
            "bufferView" : 4,
            "componentType" : 5125,
            "count" : 865728,
            "type" : "SCALAR"
        },
        {
            "bufferView" : 5,
            "componentType" : 5126,
            "count" : 499,
            "max" : [
                0.2957362234592438,
                3.46170973777771,
                -0.19829845428466797
            ],
            "min" : [
                0.10560488700866699,
                3.2904233932495117,
                -0.25971463322639465
            ],
            "type" : "VEC3"
        },
        {
            "bufferView" : 6,
            "componentType" : 5126,
            "count" : 499,
            "type" : "VEC3"
        },
        {
            "bufferView" : 7,
            "componentType" : 5126,
            "count" : 499,
            "type" : "VEC2"
        },
        {
            "bufferView" : 8,
            "componentType" : 5126,
            "count" : 499,
            "type" : "VEC2"
        },
        {
            "bufferView" : 9,
            "componentType" : 5123,
            "count" : 2496,
            "type" : "SCALAR"
        },
        {
            "bufferView" : 10,
            "componentType" : 5126,
            "count" : 1692,
            "max" : [
                0.4029006063938141,
                3.473593235015869,
                0.07272554188966751
            ],
            "min" : [
                -0.005141677334904671,
                3.2518727779388428,
                -0.1615256369113922
            ],
            "type" : "VEC3"
        },
        {
            "bufferView" : 11,
            "componentType" : 5126,
            "count" : 1692,
            "type" : "VEC3"
        },
        {
            "bufferView" : 12,
            "componentType" : 5126,
            "count" : 1692,
            "type" : "VEC2"
        },
        {
            "bufferView" : 13,
            "componentType" : 5126,
            "count" : 1692,
            "type" : "VEC2"
        },
        {
            "bufferView" : 14,
            "componentType" : 5123,
            "count" : 8448,
            "type" : "SCALAR"
        },
        {
            "bufferView" : 15,
            "componentType" : 5126,
            "count" : 1485,
            "max" : [
                0.36172086000442505,
                3.3992831707000732,
                0.14969752728939056
            ],
            "min" : [
                0.03707800805568695,
                3.224425792694092,
                -0.25427597761154175
            ],
            "type" : "VEC3"
        },
        {
            "bufferView" : 16,
            "componentType" : 5126,
            "count" : 1485,
            "type" : "VEC3"
        },
        {
            "bufferView" : 17,
            "componentType" : 5126,
            "count" : 1485,
            "type" : "VEC2"
        },
        {
            "bufferView" : 18,
            "componentType" : 5126,
            "count" : 1485,
            "type" : "VEC2"
        },
        {
            "bufferView" : 19,
            "componentType" : 5123,
            "count" : 7680,
            "type" : "SCALAR"
        },
        {
            "bufferView" : 20,
            "componentType" : 5126,
            "count" : 612,
            "max" : [
                0.38415953516960144,
                3.4732682704925537,
                -0.14368821680545807
            ],
            "min" : [
                0.027018902823328972,
                3.3076579570770264,
                -0.23278720676898956
            ],
            "type" : "VEC3"
        },
        {
            "bufferView" : 21,
            "componentType" : 5126,
            "count" : 612,
            "type" : "VEC3"
        },
        {
            "bufferView" : 22,
            "componentType" : 5126,
            "count" : 612,
            "type" : "VEC2"
        },
        {
            "bufferView" : 23,
            "componentType" : 5126,
            "count" : 612,
            "type" : "VEC2"
        },
        {
            "bufferView" : 24,
            "componentType" : 5123,
            "count" : 3072,
            "type" : "SCALAR"
        }
    ],
    "bufferViews" : [
        {
            "buffer" : 0,
            "byteLength" : 1877640,
            "byteOffset" : 0
        },
        {
            "buffer" : 0,
            "byteLength" : 1877640,
            "byteOffset" : 1877640
        },
        {
            "buffer" : 0,
            "byteLength" : 1251760,
            "byteOffset" : 3755280
        },
        {
            "buffer" : 0,
            "byteLength" : 1251760,
            "byteOffset" : 5007040
        },
        {
            "buffer" : 0,
            "byteLength" : 3462912,
            "byteOffset" : 6258800
        },
        {
            "buffer" : 0,
            "byteLength" : 5988,
            "byteOffset" : 9721712
        },
        {
            "buffer" : 0,
            "byteLength" : 5988,
            "byteOffset" : 9727700
        },
        {
            "buffer" : 0,
            "byteLength" : 3992,
            "byteOffset" : 9733688
        },
        {
            "buffer" : 0,
            "byteLength" : 3992,
            "byteOffset" : 9737680
        },
        {
            "buffer" : 0,
            "byteLength" : 4992,
            "byteOffset" : 9741672
        },
        {
            "buffer" : 0,
            "byteLength" : 20304,
            "byteOffset" : 9746664
        },
        {
            "buffer" : 0,
            "byteLength" : 20304,
            "byteOffset" : 9766968
        },
        {
            "buffer" : 0,
            "byteLength" : 13536,
            "byteOffset" : 9787272
        },
        {
            "buffer" : 0,
            "byteLength" : 13536,
            "byteOffset" : 9800808
        },
        {
            "buffer" : 0,
            "byteLength" : 16896,
            "byteOffset" : 9814344
        },
        {
            "buffer" : 0,
            "byteLength" : 17820,
            "byteOffset" : 9831240
        },
        {
            "buffer" : 0,
            "byteLength" : 17820,
            "byteOffset" : 9849060
        },
        {
            "buffer" : 0,
            "byteLength" : 11880,
            "byteOffset" : 9866880
        },
        {
            "buffer" : 0,
            "byteLength" : 11880,
            "byteOffset" : 9878760
        },
        {
            "buffer" : 0,
            "byteLength" : 15360,
            "byteOffset" : 9890640
        },
        {
            "buffer" : 0,
            "byteLength" : 7344,
            "byteOffset" : 9906000
        },
        {
            "buffer" : 0,
            "byteLength" : 7344,
            "byteOffset" : 9913344
        },
        {
            "buffer" : 0,
            "byteLength" : 4896,
            "byteOffset" : 9920688
        },
        {
            "buffer" : 0,
            "byteLength" : 4896,
            "byteOffset" : 9925584
        },
        {
            "buffer" : 0,
            "byteLength" : 6144,
            "byteOffset" : 9930480
        }
    ],
    "samplers" : [
        {
            "magFilter" : 9729,
            "minFilter" : 9987
        }
    ],
    "buffers" : [
        {
            "byteLength" : 9936624,
            "uri" : "scene.bin"
        }
    ]
}
